<svg width="256" height="76" viewBox="0 0 256 76" fill="none" xmlns="http://www.w3.org/2000/svg">
<path fill-rule="evenodd" clip-rule="evenodd" d="M58.1308 28H23V49.0986C23 52.9101 26.0754 56 29.8692 56H41.6449H58.1308C61.9246 56 65 52.9101 65 49.0986V34.9014C65 31.0899 61.9246 28 58.1308 28ZM41.6449 56L46.6495 48.7042H54.7944C56.4203 48.7042 57.7383 47.38 57.7383 45.7465V38.2535C57.7383 36.62 56.4203 35.2958 54.7944 35.2958H30.2617V45.7465C30.2617 47.38 31.5797 48.7042 33.2056 48.7042H41.6449V56Z" fill="#1277FB"/>
<path d="M84.512 33.748C86.272 33.748 87.816 34.092 89.144 34.78C90.488 35.468 91.52 36.452 92.24 37.732C92.976 38.996 93.344 40.468 93.344 42.148C93.344 43.828 92.976 45.3 92.24 46.564C91.52 47.812 90.488 48.78 89.144 49.468C87.816 50.156 86.272 50.5 84.512 50.5H78.656V33.748H84.512ZM84.392 47.644C86.152 47.644 87.512 47.164 88.472 46.204C89.432 45.244 89.912 43.892 89.912 42.148C89.912 40.404 89.432 39.044 88.472 38.068C87.512 37.076 86.152 36.58 84.392 36.58H82.016V47.644H84.392ZM99.2191 39.268C99.6511 38.564 100.211 38.012 100.899 37.612C101.603 37.212 102.403 37.012 103.299 37.012V40.54H102.411C101.355 40.54 100.555 40.788 100.011 41.284C99.4831 41.78 99.2191 42.644 99.2191 43.876V50.5H95.8591V37.204H99.2191V39.268ZM107.05 50.668C106.442 50.668 105.938 50.484 105.538 50.116C105.154 49.732 104.962 49.26 104.962 48.7C104.962 48.14 105.154 47.676 105.538 47.308C105.938 46.924 106.442 46.732 107.05 46.732C107.642 46.732 108.13 46.924 108.514 47.308C108.898 47.676 109.09 48.14 109.09 48.7C109.09 49.26 108.898 49.732 108.514 50.116C108.13 50.484 107.642 50.668 107.05 50.668ZM135.779 33.748V50.5H132.419V39.604L127.931 50.5H125.387L120.875 39.604V50.5H117.515V33.748H121.331L126.659 46.204L131.987 33.748H135.779ZM145.005 50.716C143.725 50.716 142.573 50.436 141.549 49.876C140.525 49.3 139.717 48.492 139.125 47.452C138.549 46.412 138.261 45.212 138.261 43.852C138.261 42.492 138.557 41.292 139.149 40.252C139.757 39.212 140.581 38.412 141.621 37.852C142.661 37.276 143.821 36.988 145.101 36.988C146.381 36.988 147.541 37.276 148.581 37.852C149.621 38.412 150.437 39.212 151.029 40.252C151.637 41.292 151.941 42.492 151.941 43.852C151.941 45.212 151.629 46.412 151.005 47.452C150.397 48.492 149.565 49.3 148.509 49.876C147.469 50.436 146.301 50.716 145.005 50.716ZM145.005 47.788C145.613 47.788 146.181 47.644 146.709 47.356C147.253 47.052 147.685 46.604 148.005 46.012C148.325 45.42 148.485 44.7 148.485 43.852C148.485 42.588 148.149 41.62 147.477 40.948C146.821 40.26 146.013 39.916 145.053 39.916C144.093 39.916 143.285 40.26 142.629 40.948C141.989 41.62 141.669 42.588 141.669 43.852C141.669 45.116 141.981 46.092 142.605 46.78C143.245 47.452 144.045 47.788 145.005 47.788ZM157.766 39.148C158.198 38.508 158.79 37.988 159.542 37.588C160.31 37.188 161.182 36.988 162.158 36.988C163.294 36.988 164.318 37.268 165.23 37.828C166.158 38.388 166.886 39.188 167.414 40.228C167.958 41.252 168.23 42.444 168.23 43.804C168.23 45.164 167.958 46.372 167.414 47.428C166.886 48.468 166.158 49.276 165.23 49.852C164.318 50.428 163.294 50.716 162.158 50.716C161.166 50.716 160.294 50.524 159.542 50.14C158.806 49.74 158.214 49.228 157.766 48.604V50.5H154.406V32.74H157.766V39.148ZM164.798 43.804C164.798 43.004 164.63 42.316 164.294 41.74C163.974 41.148 163.542 40.7 162.998 40.396C162.47 40.092 161.894 39.94 161.27 39.94C160.662 39.94 160.086 40.1 159.542 40.42C159.014 40.724 158.582 41.172 158.246 41.764C157.926 42.356 157.766 43.052 157.766 43.852C157.766 44.652 157.926 45.348 158.246 45.94C158.582 46.532 159.014 46.988 159.542 47.308C160.086 47.612 160.662 47.764 161.27 47.764C161.894 47.764 162.47 47.604 162.998 47.284C163.542 46.964 163.974 46.508 164.294 45.916C164.63 45.324 164.798 44.62 164.798 43.804ZM172.376 35.62C171.784 35.62 171.288 35.436 170.888 35.068C170.504 34.684 170.312 34.212 170.312 33.652C170.312 33.092 170.504 32.628 170.888 32.26C171.288 31.876 171.784 31.684 172.376 31.684C172.968 31.684 173.456 31.876 173.84 32.26C174.24 32.628 174.44 33.092 174.44 33.652C174.44 34.212 174.24 34.684 173.84 35.068C173.456 35.436 172.968 35.62 172.376 35.62ZM174.032 37.204V50.5H170.672V37.204H174.032ZM180.711 32.74V50.5H177.351V32.74H180.711ZM196.391 43.564C196.391 44.044 196.359 44.476 196.295 44.86H186.575C186.655 45.82 186.991 46.572 187.583 47.116C188.175 47.66 188.903 47.932 189.767 47.932C191.015 47.932 191.903 47.396 192.431 46.324H196.055C195.671 47.604 194.935 48.66 193.847 49.492C192.759 50.308 191.423 50.716 189.839 50.716C188.559 50.716 187.407 50.436 186.383 49.876C185.375 49.3 184.583 48.492 184.007 47.452C183.447 46.412 183.167 45.212 183.167 43.852C183.167 42.476 183.447 41.268 184.007 40.228C184.567 39.188 185.351 38.388 186.359 37.828C187.367 37.268 188.527 36.988 189.839 36.988C191.103 36.988 192.231 37.26 193.223 37.804C194.231 38.348 195.007 39.124 195.551 40.132C196.111 41.124 196.391 42.268 196.391 43.564ZM192.911 42.604C192.895 41.74 192.583 41.052 191.975 40.54C191.367 40.012 190.623 39.748 189.743 39.748C188.911 39.748 188.207 40.004 187.631 40.516C187.071 41.012 186.727 41.708 186.599 42.604H192.911Z" fill="#232D42"/>
</svg>
